<svg xmlns="http://www.w3.org/2000/svg" width="400" height="400"><g fill-rule="evenodd"><path d="M189 62.851C86.8 71.553 28.888 184.918 81.969 272.366c56.775 93.534 195.047 87.289 242.827-10.966C371.557 165.24 295.336 53.796 189 62.851m19.058 59.968c58.395 5.907 90.051 71.914 57.926 120.781-33.451 50.882-109.241 46.09-136.016-8.6-26.759-54.658 17.546-118.306 78.09-112.181" fill="#fff"/><path class="b" d="M0 200v200h400V0H0v200M211.078 62.824C328.785 72.56 381.529 215.29 298.21 298.61c-73.584 73.584-199.644 42.246-230.133-57.21-28.5-92.965 46.452-186.563 143.001-178.576m-19.035 60.033c-53.616 5.605-85.783 63.717-62.075 112.143 28.722 58.666 112.142 58.666 140.864 0 26.904-54.954-17.758-118.522-78.789-112.143" fill="#2c6c4c"/></g></svg>