<svg width="100%" height="100%" viewBox="0 0 256 256" version="1.1" xmlns="http://www.w3.org/2000/svg" xmlns:xlink="http://www.w3.org/1999/xlink" xml:space="preserve" xmlns:serif="http://www.serif.com/" style="fill-rule:evenodd;clip-rule:evenodd;stroke-linejoin:round;stroke-miterlimit:2;">
    <rect width="256" height="256" style="fill:rgb(23,115,207);"/>
    <g transform="matrix(21.0257,0,0,21.0257,-3188.13,-2682.07)">
        <g transform="matrix(12,0,0,12,153.781,137.756)">
            <path d="M0.539,-0.323C0.559,-0.309 0.576,-0.291 0.589,-0.269C0.603,-0.247 0.609,-0.22 0.609,-0.188C0.609,-0.156 0.602,-0.128 0.588,-0.104C0.574,-0.081 0.556,-0.061 0.534,-0.046C0.512,-0.031 0.487,-0.02 0.46,-0.012C0.432,-0.004 0.404,-0 0.375,-0L0.046,-0L0.046,-0.035C0.054,-0.035 0.066,-0.037 0.081,-0.039C0.096,-0.041 0.106,-0.043 0.113,-0.046C0.123,-0.051 0.13,-0.057 0.134,-0.065C0.139,-0.072 0.141,-0.082 0.141,-0.094L0.141,-0.592C0.141,-0.603 0.139,-0.613 0.135,-0.622C0.131,-0.63 0.124,-0.637 0.113,-0.642C0.103,-0.647 0.092,-0.651 0.08,-0.653C0.068,-0.656 0.058,-0.658 0.05,-0.658L0.05,-0.693L0.37,-0.693C0.394,-0.693 0.418,-0.69 0.441,-0.686C0.463,-0.681 0.485,-0.672 0.505,-0.66C0.525,-0.648 0.54,-0.633 0.553,-0.613C0.565,-0.594 0.571,-0.57 0.571,-0.542C0.571,-0.518 0.567,-0.496 0.558,-0.477C0.549,-0.458 0.537,-0.441 0.521,-0.428C0.506,-0.415 0.489,-0.404 0.469,-0.395C0.45,-0.386 0.429,-0.379 0.407,-0.374L0.407,-0.37C0.427,-0.367 0.449,-0.362 0.473,-0.355C0.498,-0.347 0.52,-0.336 0.539,-0.323ZM0.421,-0.427C0.433,-0.441 0.442,-0.457 0.447,-0.473C0.451,-0.49 0.454,-0.509 0.454,-0.532C0.454,-0.57 0.443,-0.6 0.422,-0.622C0.402,-0.643 0.369,-0.654 0.324,-0.654C0.313,-0.654 0.3,-0.654 0.284,-0.654C0.269,-0.653 0.255,-0.653 0.245,-0.652L0.245,-0.386L0.307,-0.386C0.333,-0.386 0.356,-0.39 0.375,-0.396C0.394,-0.403 0.41,-0.414 0.421,-0.427ZM0.489,-0.206C0.489,-0.247 0.475,-0.281 0.448,-0.307C0.42,-0.333 0.381,-0.347 0.33,-0.347C0.309,-0.347 0.291,-0.346 0.277,-0.346C0.263,-0.345 0.252,-0.345 0.245,-0.345L0.245,-0.101C0.245,-0.08 0.253,-0.065 0.27,-0.054C0.286,-0.044 0.309,-0.039 0.339,-0.039C0.387,-0.039 0.424,-0.053 0.45,-0.081C0.476,-0.109 0.489,-0.151 0.489,-0.206Z" style="fill:rgb(219,227,236);fill-rule:nonzero;"/>
        </g>
    </g>
</svg>
