<svg class="dark-toggle" viewBox="0 0 455 455" xmlns="http://www.w3.org/2000/svg">
<title>Dark mode switch icon</title>
<polygon points="320.18 162.7 280.63 171.05 307.72 201.05 303.44 241.24 340.34 224.75 377.24 241.24 372.96 201.05 400.05 171.05 360.5 162.7 340.34 127.67"/>
<polygon points="440 325.68 414.09 320.21 400.88 297.25 387.68 320.21 361.77 325.68 379.51 345.33 376.71 371.66 400.88 360.86 425.06 371.66 422.25 345.33"/>
<path d="m218 227.5c0-89.167 51.306-166.34 126-203.64-30.557-15.26-65.022-23.86-101.5-23.86-125.64 0-227.5 101.86-227.5 227.5s101.86 227.5 227.5 227.5c36.478 0 70.943-8.6 101.5-23.86-74.694-37.302-126-114.47-126-203.64z"/>
</svg>
