<svg enable-background="new 0 0 1000 1000" viewBox="0 0 1e3 1e3" xml:space="preserve" xmlns="http://www.w3.org/2000/svg">
<title>EPUB file icon</title>
<g class="fillable"><g transform="translate(0 512) scale(.1 -.1)"><path d="m1267.6 120v-4900h7464.8v6938.5l-2861.5 2861.5h-4603.3v-4900zm4321.9 3135.2 3.8-1374.3h2737.2v-6278.2h-6661v9034.5l1958.1-3.8 1956.2-5.7 5.7-1372.5zm1429.8 61.3 1033.6-1033.6h-2076.7v1033.6c0 568.5 1.9 1033.6 5.7 1033.6 1.9 0 468.9-465.1 1037.4-1033.6z"/><path d="m2349 192.7c-5.7-13.4-7.7-520.6-5.7-1125.5l5.7-1100.6h957v306.2l-300.5 5.7-302.4 5.7v706.3h536v287.2h-536v610.5l283.3 5.7 281.4 5.7v306.5l-455.5 5.7c-354.2 3.9-457.5 0.1-463.3-19.1z"/><path d="m3736.7 206.1c-15.3-3.8-61.3-11.5-99.5-19.1l-72.7-11.5v-2220.2l178 5.7 176.1 5.7 5.7 432.6 3.8 432.6 130.2 11.5c361.7 30.6 604.8 250.7 652.7 593.3 36.4 254.6-38.3 505.3-189.5 627.8-122.5 101.4-250.8 137.8-516.8 143.5-132.1 3.9-252.7 2-268-1.9zm505.3-340.7c88-67 135.9-218.2 120.6-379-19.1-210.5-134-336.9-327.3-356l-107.2-11.5v392.4c0 216.3 5.7 398.1 15.3 405.8 7.7 7.6 61.3 11.5 122.5 7.6 80.4-5.7 124.5-21 176.1-59.3z"/><path d="m4961.7-601.6c0-884.3 9.6-983.8 103.4-1167.6 53.6-107.2 155-204.8 258.4-250.7 93.8-42.1 388.5-42.1 482.3 0 157 68.9 287.1 241.2 344.5 457.4 15.3 57.4 24.9 361.8 30.6 932.2l7.6 846h-363.5l-5.7-874.7-5.7-876.6-47.9-86.1c-38.3-68.9-65.1-91.9-128.3-111-72.7-23-90-23-153.1 9.6-157 76.6-178 220.1-178 1217.3v721.6h-344.6v-817.4z"/><path d="m6632.7 194.6-101.4-21.1v-1096.7c0-981.9 3.8-1096.7 30.6-1108.3 51.7-19.1 557-13.4 662.3 9.6 235.4 49.8 402 183.8 474.7 377.1 55.5 145.5 47.9 411.5-13.4 532.1-51.7 95.7-170.3 206.7-262.2 239.3-38.3 13.4-68.9 28.7-68.9 36.4 1.9 5.7 38.3 34.5 86.1 63.2 229.7 145.5 300.5 482.3 153.1 733.1-53.6 91.9-116.7 143.6-252.7 202.9-76.6 34.5-135.9 42.1-350.3 45.9-141.6 3.8-304.3-3.9-357.9-13.5zm530.2-281.3c103.4-51.7 153.1-141.7 153.1-275.6 0-214.4-111-342.6-310.1-356l-111-7.7v673.8h101.4c57.5-0.1 128.3-15.4 166.6-34.5zm21-955.1c114.8-65.1 174.2-160.8 183.8-298.6 23-269.9-116.8-432.6-371.3-434.5h-101.4v790.5l114.8-11.5c63.1-5.7 141.6-24.9 174.1-45.9z"/></g></g>
</svg>
