<svg background="transparent" viewBox="0 0 1e3 1e3" xmlns="http://www.w3.org/2000/svg"><title>Offbeat Bits logo</title><g transform="translate(0 1e3) scale(.1 -.1)"><path class="fillable" d="m0 5e3v-5e3h5e3 5e3v5e3 5e3h-5e3 -5e3v-5e3zm5450 3416c539-75 1034-260 1465-547 221-147 353-256 540-443 287-287 477-550 654-906 140-282 229-536 290-833 55-265 66-383 66-707s-11-442-66-707c-140-676-485-1300-986-1784-541-522-1211-843-1973-946-192-26-668-26-860 0-411 56-773 167-1130 347-343 174-606 365-885 645-287 286-477 549-654 905-178 358-282 701-338 1110-26 192-26 668 0 860 74 542 258 1039 546 1472 149 223 257 355 445 544 188 187 321 296 541 443 483 322 1004 501 1640 565 98 10 595-3 705-18z"/><path class="fillable" d="m4834 6929c-852-76-1569-716-1739-1554-71-346-48-700 66-1030 170-495 535-905 1006-1130 753-362 1661-199 2245 403 389 400 594 960 549 1499-51 622-360 1151-871 1492-367 246-814 360-1256 320z"/></g></svg>
