<svg enable-background="new 0 0 1000 1000" viewBox="0 0 1e3 1e3" xml:space="preserve" xmlns="http://www.w3.org/2000/svg">
<title>PDF file icon</title>
<g class="fillable"><g transform="translate(0 512) scale(.1 -.1)"><path d="m1267.6 120v-4900h7464.8v6938.5l-2861.5 2861.5h-4603.3v-4900zm4321.9 3135.2 3.8-1374.3h2737.2v-6278.2h-6661v9034.5l1958.1-3.8 1956.2-5.7 5.7-1372.5zm1429.8 61.3 1033.6-1033.6h-2076.7v1033.6c0 568.5 1.9 1033.6 5.7 1033.6 1.9 0 468.9-465.1 1037.4-1033.6z"/><path d="m3248.6 208c-9.6-5.7-51.7-13.4-90-21.1l-72.7-11.5v-2218.3h344.6v880.4h91.9c49.8 0 134 11.5 187.6 26.8 357.9 95.7 543.6 363.7 520.6 754.1-11.5 193.3-68.9 325.4-187.6 430.7-135.9 120.6-233.5 151.2-526.4 158.9-135.9 3.9-256.5 3.9-268 0zm482.4-329.2c101.4-76.6 128.2-134 135.9-289 13.4-233.5-45.9-359.8-195.2-428.7-44-19.1-114.8-36.4-158.9-36.4h-82.3v388.5c0 214.4 5.7 396.2 15.3 403.9 26.8 28.7 231.6 0 285.2-38.3z"/><path d="m4684.2 206.1c-9.6-3.8-51.7-11.5-90-19.1l-72.7-11.5v-1096.8c0-983.8 3.8-1098.7 30.6-1110.2 57.4-21 495.7-11.5 591.4 15.3 310.1 82.3 495.8 287.1 597.2 662.3 47.9 176.1 47.9 759.9 0 934.1-95.7 350.3-285.2 551.3-583.7 614.4-91.9 19.2-425 26.8-472.8 11.5zm436.4-306.2c99.5-40.2 199.1-170.4 245-315.8 86.1-271.8 65.1-828.8-42.1-1071.9-72.8-164.6-216.3-268-371.3-268h-86.2v1684.4h93.8c51.7 0 122.5-13.4 160.8-28.7z"/><path d="m6081.4 192.7c-5.7-13.4-7.7-520.6-5.7-1125.5l5.7-1100.6 178-5.7 176.1-5.7v978.1h537.9l-5.7 149.3-5.7 147.4-262.2 5.7-264.1 5.7v647l283.3 5.7 281.4 5.7v306.3l-455.5 5.7c-354.4 3.9-457.7 0.1-463.5-19.1z"/></g></g>
</svg>
