<svg version="1.1" viewBox="0 0 263.1 69" xmlns="http://www.w3.org/2000/svg"><title>Twtxt logo</title><g transform="translate(-317.9 -315)"><path d="m341.3 315v17.2h12.2 19.7l9.2 36.3h1.3l10.9-36.3h15.8l10.9 36.3h1.4l9-36.3h18.6 6.8l8.4-17.2h9.8v17.2h14.6 19.4l7.3 20.3h1.2l6.4-20.3h19.1 8.6l8.4-17.2h9.8v17.2h10.9v11.8h-10.9v28.3h10.9v11.7h-17.6q-5.8 0-8.65-2.6t-2.85-9.3v-28.1h-13.013l-5.087 13.6 11.2 26.4h-20.9l-7.3-20.5h-1.2l-8.4 20.5h-19.6l12.4-26.4-5.408-13.6h-19.292v28.3h10.9v11.7h-17.6q-5.8 0-8.65-2.6t-2.85-9.3v-28.1h-10.65l-13.05 40h-21.3l-9.7-31.9h-1l-9.8 31.9h-21.2l-13.05-40h-16.05v28.3h10.9v11.7h-17.6q-5.8 0-8.65-2.6t-2.85-9.3v-28.1h-5.2v-11.8h5.2l8.4-17.2h9.8z"/></g></svg>
