<svg role="img" viewBox="0 0 115.77 122.88" xml:space="preserve" xmlns="http://www.w3.org/2000/svg"><title>Copy to clipboard icon</title><path class="fillable" d="m89.62 13.96v7.73h12.2v0.02c3.85 0.01 7.34 1.57 9.86 4.1 2.5 2.51 4.06 5.98 4.07 9.82h0.02v73.3h-0.02c-0.01 3.84-1.57 7.33-4.1 9.86-2.51 2.5-5.98 4.06-9.82 4.07v0.02h-61.73v-0.02c-3.84-0.01-7.34-1.57-9.86-4.1-2.5-2.51-4.06-5.98-4.07-9.82h-0.02v-16.43h-12.2v-0.02c-3.84-0.01-7.34-1.57-9.86-4.1-2.5-2.51-4.06-5.98-4.07-9.82h-0.02v-64.62h0.02c0.01-3.85 1.58-7.34 4.1-9.86 2.51-2.5 5.98-4.06 9.82-4.07v-0.02h61.73v0.02c3.85 0.01 7.34 1.57 9.86 4.1 2.5 2.51 4.06 5.98 4.07 9.82h0.02v0.02zm-10.58 7.73v-7.75h0.02c0-0.91-0.39-1.75-1.01-2.37-0.61-0.61-1.46-1-2.37-1v0.02h-61.73v-0.02c-0.91 0-1.75 0.39-2.37 1.01-0.61 0.61-1 1.46-1 2.37h0.02v64.62h-0.02c0 0.91 0.39 1.75 1.01 2.37 0.61 0.61 1.46 1 2.37 1v-0.02h12.2v-46.28h0.02c0.01-3.85 1.58-7.34 4.1-9.86 2.51-2.5 5.98-4.06 9.82-4.07v-0.02h38.94zm26.14 87.23v-73.29h0.02c0-0.91-0.39-1.75-1.01-2.37-0.61-0.61-1.46-1-2.37-1v0.02h-61.73v-0.02c-0.91 0-1.75 0.39-2.37 1.01-0.61 0.61-1 1.46-1 2.37h0.02v73.3h-0.02c0 0.91 0.39 1.75 1.01 2.37 0.61 0.61 1.46 1 2.37 1v-0.02h61.73v0.02c0.91 0 1.75-0.39 2.37-1.01 0.61-0.61 1-1.46 1-2.37h-0.02v-0.01z" /></svg>