<svg role="img" viewBox="0 0 61 65" xmlns="http://www.w3.org/2000/svg"><title>Mastodon icon</title><path class="fillable" d="m60.754 14.39c-0.9396-6.984-7.0266-12.488-14.242-13.554-1.2174-0.18021-5.8298-0.83607-16.514-0.83607h-0.0798c-10.688 0-12.98 0.65585-14.198 0.83607-7.0147 1.037-13.421 5.9825-14.975 13.049-0.74757 3.4802-0.82735 7.3385-0.68847 10.878 0.19797 5.0755 0.23638 10.142 0.69734 15.197 0.31867 3.3577 0.87458 6.6886 1.6636 9.9678 1.4774 6.0563 7.458 11.096 13.317 13.152 6.2733 2.1443 13.02 2.5003 19.484 1.0281 0.7111-0.1654 1.4134-0.3574 2.1068-0.5761 1.5719-0.4992 3.4128-1.0576 4.7661-2.0384 0.0186-0.0138 0.0338-0.0316 0.0445-0.052 0.0108-0.0205 0.0168-0.0431 0.0176-0.0662v-4.8982c-4e-4 -0.0216-0.0055-0.0428-0.0151-0.0622-0.0096-0.0193-0.0234-0.0363-0.0404-0.0496s-0.0368-0.0226-0.0579-0.0273c-0.021-0.0047-0.0429-0.0046-0.0639 2e-4 -4.1416 0.9892-8.3856 1.485-12.644 1.4772-7.3279 0-9.2988-3.4772-9.8631-4.9248-0.4537-1.2511-0.7418-2.5562-0.8569-3.882-0.0012-0.0222 0.0029-0.0445 0.0119-0.0649 9e-3 -0.0203 0.0227-0.0383 0.04-0.0524s0.0376-0.024 0.0594-0.0287c0.0218-0.0048 0.0444-0.0043 0.066 0.0013 4.0725 0.9824 8.2473 1.4782 12.437 1.4771 1.0075 0 2.0122 0 3.0198-0.0266 4.2135-0.1182 8.6546-0.3338 12.8-1.1433 0.1034-0.0207 0.2069-0.0384 0.2955-0.065 6.539-1.2556 12.762-5.1966 13.394-15.176 0.0236-0.3929 0.0827-4.1153 0.0827-4.523 0.0029-1.3856 0.4462-9.829-0.065-15.017z"/><path class="fillable-2" d="m50.394 22.237v17.351h-6.8758v-16.84c0-3.5452-1.4774-5.3532-4.4825-5.3532-3.3035 0-4.9582 2.1389-4.9582 6.3636v9.2174h-6.8344v-9.2174c0-4.2247-1.6577-6.3636-4.9612-6.3636-2.9873 0-4.4795 1.808-4.4795 5.3532v16.84h-6.8729v-17.351c0-3.5452 0.9052-6.3616 2.7155-8.4493 1.8675-2.0828 4.317-3.1522 7.3575-3.1522 3.5192 0 6.1785 1.353 7.9514 4.0562l1.7108 2.8716 1.7138-2.8716c1.7729-2.7032 4.4322-4.0562 7.9455-4.0562 3.0376 0 5.4871 1.0694 7.3604 3.1522 1.8084 2.0857 2.7116 4.9022 2.7096 8.4493z"/></svg>
